<svg width="700" height="700" viewBox="0 0 700 700" fill="none" xmlns="http://www.w3.org/2000/svg">
<path d="M228.69 58.8H472.71C565.67 58.8 641.2 134.33 641.2 227.29V471.31C641.2 515.996 623.448 558.852 591.85 590.45C560.252 622.048 517.396 639.8 472.71 639.8H228.69C135.73 639.8 60.2 564.27 60.2 471.31V227.29C60.2 182.604 77.9516 139.748 109.55 108.15C141.148 76.5516 184.004 58.8 228.69 58.8ZM222.88 116.9C195.144 116.9 168.543 127.918 148.931 147.531C129.318 167.143 118.3 193.744 118.3 221.48V477.12C118.3 534.929 165.071 581.7 222.88 581.7H478.52C506.256 581.7 532.857 570.682 552.469 551.069C572.082 531.457 583.1 504.856 583.1 477.12V221.48C583.1 163.67 536.329 116.9 478.52 116.9H222.88ZM503.213 160.475C512.843 160.475 522.079 164.301 528.889 171.111C535.699 177.921 539.525 187.157 539.525 196.787C539.525 206.418 535.699 215.654 528.889 222.464C522.079 229.274 512.843 233.1 503.213 233.1C493.582 233.1 484.346 229.274 477.536 222.464C470.726 215.654 466.9 206.418 466.9 196.787C466.9 187.157 470.726 177.921 477.536 171.111C484.346 164.301 493.582 160.475 503.213 160.475ZM350.7 204.05C389.223 204.05 426.168 219.353 453.407 246.593C480.647 273.832 495.95 310.777 495.95 349.3C495.95 387.823 480.647 424.768 453.407 452.007C426.168 479.247 389.223 494.55 350.7 494.55C312.177 494.55 275.232 479.247 247.993 452.007C220.753 424.768 205.45 387.823 205.45 349.3C205.45 310.777 220.753 273.832 247.993 246.593C275.232 219.353 312.177 204.05 350.7 204.05ZM350.7 262.15C327.586 262.15 305.419 271.332 289.076 287.676C272.732 304.019 263.55 326.186 263.55 349.3C263.55 372.414 272.732 394.581 289.076 410.924C305.419 427.268 327.586 436.45 350.7 436.45C373.814 436.45 395.981 427.268 412.324 410.924C428.668 394.581 437.85 372.414 437.85 349.3C437.85 326.186 428.668 304.019 412.324 287.676C395.981 271.332 373.814 262.15 350.7 262.15Z" fill="black"/>
</svg>
