<svg width="700" height="700" viewBox="0 0 700 700" fill="none" xmlns="http://www.w3.org/2000/svg">
<path d="M114.095 585L145.934 468.003C124.954 432.039 113.932 391.136 114 349.5C114 219.433 219.434 114 349.5 114C479.567 114 585 219.433 585 349.5C585 479.566 479.567 585 349.5 585C307.882 585.067 266.996 574.053 231.044 553.089L114.095 585ZM264.508 239.003C261.467 239.192 258.495 239.993 255.771 241.358C253.217 242.805 250.885 244.613 248.848 246.728C246.022 249.389 244.42 251.697 242.701 253.934C233.997 265.261 229.315 279.166 229.395 293.451C229.442 304.99 232.457 316.224 237.167 326.727C246.799 347.969 262.648 370.459 283.584 391.301C288.623 396.317 293.545 401.357 298.844 406.043C324.829 428.921 355.794 445.42 389.276 454.227L402.676 456.275C407.033 456.511 411.39 456.181 415.77 455.969C422.628 455.615 429.326 453.758 435.387 450.529C438.471 448.941 441.481 447.212 444.407 445.348C444.407 445.348 445.419 444.689 447.35 443.229C450.53 440.874 452.484 439.202 455.122 436.446C457.076 434.421 458.772 432.043 460.067 429.334C461.904 425.496 463.741 418.172 464.495 412.072C465.06 407.409 464.895 404.866 464.824 403.288C464.73 400.768 462.634 398.154 460.35 397.047L446.644 390.901C446.644 390.901 426.155 381.975 413.65 376.276C412.332 375.701 410.919 375.374 409.482 375.311C407.871 375.145 406.243 375.326 404.707 375.842C403.172 376.358 401.765 377.197 400.58 378.301V378.254C400.462 378.254 398.884 379.597 381.858 400.227C380.881 401.54 379.534 402.532 377.991 403.077C376.448 403.623 374.777 403.696 373.191 403.288C371.657 402.878 370.154 402.358 368.693 401.734C365.773 400.509 364.761 400.038 362.759 399.167L362.641 399.12C349.168 393.237 336.694 385.292 325.668 375.57C322.7 372.979 319.945 370.153 317.119 367.421C307.854 358.549 299.779 348.511 293.098 337.56L291.708 335.323C290.711 333.819 289.904 332.198 289.306 330.495C288.412 327.033 290.743 324.254 290.743 324.254C290.743 324.254 296.466 317.99 299.127 314.599C301.343 311.78 303.41 308.848 305.32 305.815C308.099 301.34 308.971 296.748 307.511 293.192C300.917 277.084 294.087 261.046 287.069 245.126C285.68 241.971 281.558 239.71 277.814 239.262C276.542 239.121 275.271 238.98 273.999 238.886C270.836 238.728 267.667 238.783 264.508 239.003Z" fill="black"/>
</svg>
